<svg width="89" height="24" viewBox="0 0 89 24" fill="none" xmlns="http://www.w3.org/2000/svg">
<g clip-path="url(#clip0_5_3023)">
<path d="M0 17.4219V15.5898H1.83645V5.06063H0V3.22852H5.96518C7.35451 3.22852 8.44285 3.27203 9.23239 3.35907C10.0219 3.44611 10.637 3.58319 11.0797 3.76814C11.5203 3.95309 11.9282 4.23161 12.299 4.60151C12.6327 4.93443 12.8835 5.35002 13.0536 5.85266C13.2237 6.35529 13.3088 6.89056 13.3088 7.46283C13.3088 9.24489 12.4473 10.5004 10.7221 11.2293C11.3524 11.7668 11.7559 12.611 11.9325 13.7599C11.9522 13.8817 11.974 14.0384 12.0023 14.2321C12.0285 14.4257 12.0503 14.5737 12.0656 14.6781C12.0808 14.7826 12.1027 14.9066 12.1288 15.0502C12.155 15.1938 12.1812 15.3026 12.203 15.3788C12.227 15.4549 12.2553 15.5311 12.288 15.6072C12.3229 15.6834 12.3622 15.7378 12.4058 15.7704C12.4494 15.8031 12.4996 15.8183 12.552 15.8183C12.6697 15.8183 12.7722 15.7639 12.8595 15.6573C12.9467 15.5507 13.0143 15.3918 13.0689 15.1786C13.1234 14.9675 13.1626 14.7739 13.1888 14.5976C13.215 14.4214 13.2455 14.1929 13.2804 13.91C13.287 13.8404 13.2935 13.7904 13.2979 13.7555L14.9162 13.9209C14.877 14.2908 14.8442 14.578 14.8159 14.7847C14.7875 14.9915 14.7395 15.246 14.6763 15.5507C14.6109 15.8553 14.5367 16.0925 14.4517 16.26C14.3666 16.4276 14.251 16.6147 14.1049 16.817C13.9587 17.0216 13.7864 17.1739 13.5923 17.274C13.3982 17.3741 13.1561 17.4611 12.8726 17.5351C12.5869 17.6069 12.2662 17.6439 11.9064 17.6439C11.6468 17.6439 11.4069 17.633 11.1888 17.6091C10.9707 17.5873 10.77 17.5481 10.5846 17.4937C10.3993 17.4393 10.2291 17.3806 10.0765 17.3153C9.92379 17.25 9.77984 17.163 9.64679 17.052C9.51375 16.9411 9.39379 16.8301 9.2891 16.7169C9.18441 16.6038 9.0819 16.4624 8.98157 16.2905C8.88124 16.1186 8.79618 15.951 8.71985 15.79C8.64569 15.6268 8.56499 15.4288 8.48211 15.1938C8.39705 14.9588 8.32289 14.7347 8.25746 14.5215C8.19203 14.3082 8.11788 14.0493 8.03281 13.749C7.93031 13.3835 7.83216 13.0941 7.74273 12.883C7.65331 12.6719 7.5399 12.487 7.40249 12.3303C7.26508 12.1737 7.10151 12.067 6.91175 12.0061C6.722 11.9452 6.48427 11.9169 6.19855 11.9169H5.50934V15.579H7.34578V17.4111H0V17.4219ZM5.50716 10.0957H6.42538C8.26182 10.0957 9.17787 9.25577 9.17787 7.57815C9.17787 7.28875 9.15824 7.02547 9.1168 6.7883C9.07754 6.55112 9.00338 6.32265 8.89651 6.10071C8.78964 5.87877 8.65223 5.69382 8.48429 5.54585C8.31635 5.39789 8.09607 5.27822 7.82561 5.19118C7.55516 5.10415 7.24109 5.06063 6.88558 5.06063H5.50934V10.0978L5.50716 10.0957Z" fill="white"/>
<path d="M19.0343 12.8439C19.0692 13.2856 19.1412 13.6816 19.2524 14.0276C19.3636 14.3757 19.4989 14.6586 19.6559 14.8805C19.8151 15.1025 19.9983 15.2831 20.2099 15.4267C20.4193 15.5703 20.6374 15.6704 20.8577 15.7291C21.0801 15.7879 21.3157 15.8183 21.5687 15.8183C22.3757 15.8183 23.006 15.6638 23.4597 15.3527C23.9133 15.0415 24.2754 14.5628 24.5458 13.9144L26.0726 14.441C25.9352 14.8109 25.7607 15.159 25.5469 15.4854C25.3354 15.8118 25.0802 16.1121 24.7814 16.3862C24.4826 16.6604 24.1511 16.8976 23.7868 17.0934C23.4226 17.2892 23.0104 17.4437 22.5502 17.5547C22.0921 17.6657 21.608 17.7201 21.0998 17.7201C20.3473 17.7201 19.6341 17.5895 18.9623 17.3262C18.2906 17.063 17.7082 16.6952 17.2131 16.2252C16.718 15.7531 16.3254 15.1743 16.0375 14.4823C15.7496 13.7926 15.6035 13.0397 15.6035 12.2281C15.6035 11.4165 15.7475 10.6593 16.0375 9.9608C16.3254 9.26234 16.718 8.67484 17.2131 8.19614C17.7082 7.71744 18.2906 7.34319 18.9623 7.0712C19.6341 6.80139 20.3451 6.66431 21.0998 6.66431C21.8544 6.66431 22.5654 6.79921 23.2372 7.0712C23.909 7.34319 24.4913 7.71744 24.9864 8.19614C25.4815 8.67484 25.8741 9.26451 26.162 9.9608C26.4499 10.6593 26.596 11.4143 26.596 12.2281L26.4521 12.8461H19.0343V12.8439ZM19.0736 11.0118H23.1238C23.0235 10.1349 22.8053 9.49516 22.4651 9.09479C22.1249 8.69443 21.6734 8.49424 21.1107 8.49424C20.8315 8.49424 20.5807 8.53994 20.3582 8.62915C20.1357 8.71836 19.9373 8.86197 19.7606 9.0578C19.5839 9.25363 19.4378 9.51474 19.3222 9.84113C19.2044 10.1675 19.1216 10.557 19.0736 11.0118Z" fill="white"/>
<path d="M37.3787 10.5265V15.592H38.5259V17.4242H34.9512L34.4408 16.2339C34.0504 16.791 33.5989 17.1718 33.0842 17.3785C32.5694 17.5852 31.8519 17.6874 30.9293 17.6874C30.4516 17.6874 30.0067 17.6048 29.5945 17.4394C29.1823 17.274 28.8333 17.0477 28.5454 16.7605C28.2575 16.4733 28.0307 16.1317 27.8693 15.7313C27.7057 15.3309 27.625 14.9023 27.625 14.4432C27.625 13.6533 27.9347 12.9984 28.5541 12.4783C29.1735 11.9583 29.9653 11.6972 30.9293 11.6972C31.7057 11.6972 32.347 11.7712 32.8573 11.9169C33.3655 12.0649 33.8017 12.2977 34.166 12.6176V10.1914C34.166 9.84766 34.1202 9.56044 34.0264 9.32979C33.9326 9.09914 33.793 8.92072 33.6054 8.79669C33.4179 8.67267 33.2085 8.58563 32.9751 8.53558C32.7417 8.48554 32.4626 8.4616 32.1376 8.4616C31.8781 8.4616 31.6425 8.516 31.4331 8.62697C31.5509 8.87503 31.612 9.13613 31.612 9.4103C31.612 9.91728 31.4331 10.3503 31.0754 10.7071C30.7177 11.064 30.2837 11.2424 29.7755 11.2424C29.2673 11.2424 28.8333 11.064 28.4756 10.7071C28.1179 10.3503 27.9391 9.91946 27.9391 9.4103C27.9391 9.15137 27.9892 8.90766 28.0917 8.67702C28.1921 8.44855 28.3338 8.24837 28.5127 8.07647C28.6654 7.91545 28.8246 7.77184 28.9882 7.64346C29.1517 7.51509 29.3611 7.38888 29.6098 7.2605C29.8606 7.13213 30.1332 7.02768 30.4276 6.94282C30.7221 6.85796 31.0754 6.79051 31.4855 6.74046C31.8955 6.68824 32.347 6.66431 32.8355 6.66431C33.4702 6.66431 34.0678 6.75787 34.6262 6.945C35.1845 7.13213 35.6665 7.39106 36.0722 7.72397C36.4779 8.05689 36.7963 8.46378 37.0297 8.94901C37.2631 9.43423 37.3787 9.9608 37.3787 10.5287V10.5265ZM34.166 14.8827V14.0928C33.9282 13.8687 33.6621 13.6772 33.3655 13.5228C33.0689 13.3683 32.7941 13.2921 32.5433 13.2921C32.0002 13.2921 31.6185 13.3835 31.396 13.5641C31.1736 13.7447 31.0623 14.0384 31.0623 14.4432C31.0623 14.9284 31.1583 15.2852 31.3481 15.5137C31.54 15.7422 31.8955 15.8575 32.4146 15.8575C32.709 15.8575 33.0166 15.7639 33.335 15.5746C33.6534 15.3853 33.9304 15.1569 34.1638 14.8849L34.166 14.8827Z" fill="white"/>
<path d="M43.3392 17.6852C42.445 17.6852 41.686 17.4568 41.0622 16.9976C40.4384 16.5407 39.976 15.901 39.6707 15.0807C39.3675 14.2604 39.2148 13.2834 39.2148 12.1497C39.2148 11.3229 39.3239 10.5635 39.5398 9.87808C39.7557 9.19049 40.0589 8.6117 40.4471 8.14171C40.8354 7.66954 41.3043 7.30616 41.8517 7.0494C42.3992 6.79265 43.0011 6.66209 43.6555 6.66209C43.9848 6.66209 44.2945 6.69256 44.5846 6.75131C44.8747 6.81005 45.1233 6.88404 45.3283 6.97107C45.5334 7.05811 45.7275 7.1669 45.9107 7.29746C46.0939 7.42801 46.2422 7.54986 46.3556 7.66301C46.469 7.77833 46.5781 7.90453 46.6849 8.04597V5.06063H45.5377V3.22852H49.8976V15.5898H51.0449V17.4219H47.6381L46.9445 16.0946C46.7962 16.3014 46.6261 16.4885 46.4407 16.6604C45.6838 17.3436 44.65 17.6852 43.3436 17.6852H43.3392ZM46.6828 9.98688C46.2466 9.18614 45.6533 8.78578 44.9052 8.78578C44.1571 8.78578 43.5857 9.0817 43.2149 9.67354C42.8463 10.2654 42.6609 11.1053 42.6609 12.1911C42.6609 12.7024 42.722 13.1746 42.8419 13.6076C42.9619 14.0406 43.1233 14.3996 43.3239 14.6868C43.5246 14.9719 43.7558 15.196 44.0153 15.3527C44.2749 15.5093 44.5475 15.5898 44.8289 15.5898C45.2106 15.5898 45.5508 15.4832 45.8474 15.2721C46.144 15.0611 46.421 14.7456 46.6828 14.33V9.98688Z" fill="white"/>
<path d="M52.3039 3.22852H60.1056V5.06063H57.8111V15.5898H61.4818C61.6432 15.5898 61.785 15.5289 61.9115 15.4049C62.038 15.2809 62.1339 15.122 62.2016 14.9262C62.2692 14.7325 62.3171 14.5345 62.3499 14.3365C62.3826 14.1385 62.3978 13.9448 62.3978 13.7577V11.9256H64.4633V17.4198H52.3018V15.5877H54.1382V5.06063H52.3018V3.22852H52.3039Z" fill="white"/>
<path d="M69.3158 7.09281C69.9876 6.82953 70.6986 6.69897 71.4533 6.69897C72.2079 6.69897 72.9189 6.82953 73.5907 7.09281C74.2625 7.3561 74.847 7.72383 75.3421 8.19382C75.8372 8.66382 76.232 9.24696 76.522 9.93672C76.8099 10.6265 76.9561 11.3793 76.9561 12.191C76.9561 13.0026 76.8121 13.7554 76.522 14.4452C76.2341 15.135 75.8394 15.7159 75.3421 16.1881C74.8448 16.6603 74.2603 17.0258 73.5907 17.2891C72.9189 17.5524 72.2079 17.6829 71.4533 17.6829C70.6986 17.6829 69.9876 17.5524 69.3158 17.2891C68.6441 17.0258 68.0617 16.6581 67.5666 16.1881C67.0715 15.7159 66.679 15.1371 66.3911 14.4452C66.1032 13.7554 65.957 13.0026 65.957 12.191C65.957 11.3793 66.101 10.6265 66.3911 9.93672C66.679 9.24696 67.0715 8.66599 67.5666 8.19382C68.0617 7.72165 68.6441 7.3561 69.3158 7.09281ZM71.4533 8.52891C71.185 8.52891 70.9473 8.56808 70.7357 8.64423C70.5263 8.72039 70.3322 8.84659 70.1556 9.02284C69.9789 9.19909 69.8349 9.42538 69.7215 9.7039C69.6081 9.98241 69.5209 10.3306 69.4576 10.7462C69.3944 11.1618 69.3638 11.6448 69.3638 12.1931C69.3638 12.7415 69.3944 13.2245 69.4576 13.6401C69.5209 14.0557 69.6081 14.4039 69.7215 14.6824C69.8349 14.9609 69.9789 15.1872 70.1556 15.3634C70.3322 15.5397 70.5242 15.6659 70.7357 15.742C70.9451 15.8182 71.185 15.8574 71.4533 15.8574C71.7892 15.8574 72.0814 15.7943 72.3301 15.6659C72.5787 15.5375 72.7946 15.333 72.9822 15.0501C73.1676 14.7672 73.3072 14.3886 73.401 13.9121C73.4947 13.4356 73.5405 12.8633 73.5405 12.1953C73.5405 11.5273 73.4947 10.955 73.401 10.4785C73.3072 10.002 73.1676 9.62121 72.9822 9.34052C72.7968 9.05766 72.5787 8.85312 72.3301 8.72474C72.0814 8.59636 71.7892 8.53326 71.4533 8.53326V8.52891Z" fill="white"/>
<path d="M85.1002 4.83211C85.1002 4.32513 85.2791 3.89212 85.6368 3.53527C85.9945 3.17842 86.4263 3 86.9367 3C87.1286 3 87.3162 3.02829 87.4994 3.08486C87.7371 3.15667 87.9443 3.2524 88.121 3.3699C88.2998 3.4874 88.4438 3.61796 88.555 3.75939C88.6663 3.90082 88.7557 4.06402 88.8255 4.24897C88.8953 4.43392 88.9411 4.61887 88.9651 4.80382C88.989 4.98878 89.0021 5.19331 89.0021 5.41961C89.0021 5.6459 88.9563 5.89613 88.8647 6.15289C88.7731 6.40747 88.651 6.64899 88.5005 6.87746C88.35 7.10376 88.1842 7.31699 88.0076 7.51283C87.8287 7.70866 87.6477 7.88273 87.4601 8.03069C88.0294 8.59208 88.3151 9.27966 88.3151 10.0956C88.3151 10.7071 88.1821 11.2489 87.916 11.7232C87.6499 12.1975 87.2835 12.5805 86.8167 12.8743C86.35 13.168 85.8178 13.3856 85.2202 13.5357C84.6226 13.6837 83.9704 13.7598 83.266 13.7598C82.6836 13.7598 82.1275 13.6946 81.5975 13.5662C81.2485 13.6206 80.9824 13.7142 80.7948 13.8469C80.6073 13.9796 80.5135 14.1036 80.5135 14.219C80.5135 14.3343 80.5615 14.4387 80.6574 14.5345C80.7534 14.6302 80.8581 14.6781 80.9737 14.6781H84.1864C85.8047 14.6781 86.9738 14.9087 87.6935 15.37C88.4133 15.8313 88.7753 16.5929 88.7753 17.6525C88.7753 18.1639 88.7121 18.6273 88.5856 19.0451C88.4591 19.4629 88.2889 19.8197 88.073 20.1157C87.8571 20.4116 87.591 20.6727 87.2726 20.899C86.9541 21.1253 86.6226 21.3081 86.2736 21.4451C85.9247 21.5822 85.5364 21.6932 85.109 21.7781C84.6815 21.8629 84.2649 21.9195 83.8636 21.9521C83.4623 21.9848 83.0326 22 82.5789 22C81.8526 22 81.1962 21.9217 80.6094 21.7628C80.0227 21.604 79.5407 21.3886 79.1634 21.1144C78.7861 20.8402 78.496 20.5247 78.2954 20.1679C78.0925 19.811 77.9922 19.4303 77.9922 19.0255C77.9922 18.1965 78.4677 17.5503 79.4208 17.0846C79.05 16.8975 78.7577 16.6407 78.544 16.3144C78.3303 15.988 78.2234 15.5941 78.2234 15.1328C78.2234 14.6172 78.3717 14.1515 78.6705 13.7316C78.9693 13.3116 79.3706 13.007 79.8744 12.8155C79.4273 12.4978 79.0784 12.1127 78.8275 11.6601C78.5767 11.2053 78.4524 10.6853 78.4524 10.0978C78.4524 9.6104 78.5396 9.17087 78.7141 8.78138C78.8886 8.39189 79.1242 8.06986 79.4208 7.81093C79.7174 7.55417 80.0729 7.33875 80.4873 7.16903C80.9017 6.99931 81.3401 6.87746 81.7981 6.80566C82.2561 6.73385 82.7491 6.69686 83.2725 6.69686C84.4808 6.69686 85.5125 6.89487 86.3652 7.29306C86.5594 7.06894 86.712 6.8557 86.8189 6.6577C86.3413 6.62723 85.9356 6.43575 85.6062 6.08543C85.2747 5.73511 85.1111 5.31734 85.1111 4.83211H85.1002ZM81.6302 17.4219C81.1896 17.7352 80.9715 18.116 80.9715 18.5664C80.9715 19.0168 81.1133 19.3236 81.3968 19.4781C81.6803 19.6326 82.2256 19.7109 83.037 19.7109C84.8734 19.7109 85.7894 19.254 85.7894 18.338C85.7894 18.1095 85.6935 17.8984 85.5037 17.7091C85.314 17.5198 85.1024 17.4241 84.8734 17.4241H81.6324L81.6302 17.4219ZM83.3794 8.49416C82.8407 8.49416 82.4175 8.64865 82.1144 8.95763C81.8112 9.26661 81.6585 9.71267 81.6585 10.2958C81.6585 10.879 81.8112 11.3402 82.1166 11.6666C82.4219 11.993 82.8428 12.1562 83.3794 12.1562C83.9159 12.1562 84.3303 11.9908 84.6379 11.6623C84.9454 11.3315 85.1002 10.8768 85.1002 10.298C85.1002 9.71919 84.9476 9.27748 84.6422 8.96415C84.3369 8.65082 83.9159 8.49416 83.3794 8.49416Z" fill="white"/>
</g>
<defs>
<clipPath id="clip0_5_3023">
<rect width="89" height="24" fill="white"/>
</clipPath>
</defs>
</svg>
